<?xml version="1.0" encoding="UTF-8" standalone="no"?>
<!-- Created with Inkscape (http://www.inkscape.org/) -->

<svg
   xmlns:dc="http://purl.org/dc/elements/1.1/"
   xmlns:cc="http://creativecommons.org/ns#"
   xmlns:rdf="http://www.w3.org/1999/02/22-rdf-syntax-ns#"
   xmlns:svg="http://www.w3.org/2000/svg"
   xmlns="http://www.w3.org/2000/svg"
   version="1.1"
   width="100%"
   height="100%"
   viewBox="0 0 792 550"
   id="Layer_1"
   xml:space="preserve"><metadata
     id="metadata46"><rdf:RDF><cc:Work
         rdf:about=""><dc:format>image/svg+xml</dc:format><dc:type
           rdf:resource="http://purl.org/dc/dcmitype/StillImage" /><dc:title></dc:title></cc:Work></rdf:RDF></metadata><defs
     id="defs44" /><style
     type="text/css"
     id="style3" /><g
     id="g5"><linearGradient
       x1="484.46481"
       y1="271.7009"
       x2="308.6304"
       y2="-32.853199"
       id="SVGID_1_"
       gradientUnits="userSpaceOnUse"><stop
         id="stop8"
         style="stop-color:#800a66;stop-opacity:1"
         offset="0" /><stop
         id="stop10"
         style="stop-color:#ed2952;stop-opacity:1"
         offset="1" /></linearGradient><path
       d="m 562.4,225 c -2.3,0 -4.6,-0.7 -6.6,-2.2 l -123.3,-92 c -0.2,-0.1 -0.4,-0.3 -0.6,-0.4 L 318.5,45.9 v 33.4 l 161.8,126.1 c 3.7,2.9 5.2,7.8 3.6,12.3 -1.5,4.5 -5.7,7.4 -10.4,7.4 h -166 c -6.1,0 -11,-4.9 -11,-11 V 90 L 241.7,47.3 V 214 c 0,6.1 -4.9,11 -11,11 -6.1,0 -11,-4.9 -11,-11 V 24.8 c 0,-4.2 2.4,-8 6.2,-9.9 3.8,-1.8 8.3,-1.4 11.6,1.2 l 59,46 V 23.9 c 0,-4.2 2.3,-8 6.1,-9.8 3.7,-1.9 8.2,-1.5 11.5,1 l 124.5,92.9 117,-91.8 c 3.3,-2.6 7.8,-3.1 11.6,-1.2 3.8,1.8 6.2,5.7 6.2,9.9 V 214 c 0,4.2 -2.3,8 -6.1,9.8 -1.5,0.8 -3.2,1.2 -4.9,1.2 z M 318.5,203 h 123 l -123,-95.8 V 203 z m 138.4,-81.4 94.5,70.5 V 47.5 l -94.5,74.1 z"
       id="path12"
       style="fill:url(#SVGID_1_)" /><path
       d="m 16.8,393.1 v -89.9 h 7.3 v 89.9 h -7.3 z"
       id="path14"
       style="fill:#ffffff" /><path
       d="M 118.7,326.8 C 112,315.5 99.4,308.6 85.3,308.6 c -22.1,0 -39.1,15.9 -39.1,39.6 0,23.4 17.2,39.4 39.1,39.4 15.3,0 28.4,-8.2 34.8,-20.8 l 7.3,2.1 C 120,384.8 104,395 85.3,395 59.5,395 38.7,375.3 38.7,348.2 c 0,-27.1 20.8,-46.8 46.6,-46.8 17.6,0 32.8,9.3 40.9,23.5 l -7.5,1.9 z"
       id="path16"
       style="fill:#ffffff" /><path
       d="m 181,301.4 c 25.8,0 46.8,19.7 46.8,46.8 0,27.1 -20.9,46.8 -46.8,46.8 -25.8,0 -46.6,-19.7 -46.6,-46.8 0,-27.1 20.8,-46.8 46.6,-46.8 z m 0,86.3 c 21.8,0 39.2,-16.2 39.2,-39.6 0,-23.6 -17.3,-39.6 -39.2,-39.6 -22,0 -39.1,15.9 -39.1,39.6 0.1,23.4 17.2,39.6 39.1,39.6 z"
       id="path18"
       style="fill:#ffffff" /><path
       d="m 329.2,386.1 v 7.1 H 272 v -89.9 h 7.3 v 82.9 h 49.9 z"
       id="path20"
       style="fill:#ffffff" /><path
       d="m 406.2,366.9 h -47.4 l -11.4,26.2 h -8.1 l 40,-89.9 h 6.6 l 40,89.9 h -8.1 l -11.6,-26.2 z m -3,-6.5 -16.6,-37.9 c -1.9,-4.6 -4,-10.4 -4.1,-10.4 h -0.1 c -0.1,0 -2.2,5.8 -4.1,10.4 l -16.6,37.9 h 41.5 z"
       id="path22"
       style="fill:#ffffff" /><path
       d="m 505,303.2 v 53.5 c 0,24.9 -12.8,38.4 -36.1,38.4 -23.5,0 -36.1,-13.5 -36.1,-38.4 v -53.5 h 7.3 v 53.7 c 0,20.7 9.8,31.1 28.8,31.1 19,0 28.7,-10.4 28.7,-31.1 v -53.7 h 7.4 z"
       id="path24"
       style="fill:#ffffff" /><path
       d="m 593.4,303.2 v 89.9 h -6.9 L 540.6,331.3 C 532.9,320.8 529,315 528.9,315 h -0.1 c -0.1,0 0.3,10.5 0.3,23.4 v 54.7 h -7.3 v -89.9 h 6.9 l 45.7,61.5 c 7.1,9.5 11.7,15.9 11.8,15.9 h 0.1 c 0.1,0 -0.4,-10.8 -0.4,-22.9 v -54.6 h 7.5 z"
       id="path26"
       style="fill:#ffffff" /><path
       d="m 687.9,326.8 c -6.7,-11.3 -19.3,-18.2 -33.4,-18.2 -22.1,0 -39.1,15.9 -39.1,39.6 0,23.4 17.2,39.4 39.1,39.4 15.3,0 28.4,-8.2 34.8,-20.8 l 7.3,2.1 c -7.4,15.9 -23.4,26.1 -42.1,26.1 -25.8,0 -46.6,-19.7 -46.6,-46.8 0,-27.1 20.8,-46.8 46.6,-46.8 17.6,0 32.8,9.3 40.9,23.5 l -7.5,1.9 z"
       id="path28"
       style="fill:#ffffff" /><path
       d="m 776.3,303.2 v 89.9 h -7.5 v -43.4 h -53.5 v 43.4 H 708 v -89.9 h 7.3 v 39.4 h 53.5 v -39.4 h 7.5 z"
       id="path30"
       style="fill:#ffffff" /><path
       d="m 44.5,425.8 v 30 h -7.1 v -7.3 c 0,-7.1 0.3,-10.6 0.2,-10.6 h 0 c 0,0 -2.4,4.1 -2.7,4.5 l -3.5,6 h -3.7 l -3.5,-6 c -0.3,-0.4 -2.7,-4.5 -2.7,-4.5 h 0 c 0,0 0.2,3.5 0.2,10.6 v 7.3 h -7.1 v -30 h 6.8 l 5.6,9.1 c 2.2,3.6 2.5,4.3 2.6,4.3 h 0 c 0,0 0.4,-0.8 2.6,-4.3 l 5.6,-9.1 h 6.7 z"
       id="path32"
       style="fill:#c7225b" /><path
       d="m 224.8,451.1 h -11.9 l -1.7,4.7 h -7.8 l 12,-30 h 6.8 l 12,30 h -7.8 l -1.6,-4.7 z m -2.3,-6.3 -2.1,-5.8 c -0.6,-1.7 -1.4,-4.4 -1.5,-4.4 h 0 c 0,0 -0.8,2.7 -1.5,4.4 l -2.1,5.8 h 7.2 z"
       id="path34"
       style="fill:#c7225b" /><path
       d="m 414.6,449.1 v 6.7 h -21.4 v -30 h 7.2 v 23.3 h 14.2 z"
       id="path36"
       style="fill:#c7225b" /><path
       d="m 593.8,425.8 v 6.7 h -9.1 v 23.3 h -7.2 v -23.3 h -9 v -6.7 h 25.3 z"
       id="path38"
       style="fill:#c7225b" /><path
       d="m 769.1,451.1 h -11.9 l -1.7,4.7 h -7.8 l 12,-30 h 6.8 l 12,30 h -7.8 l -1.6,-4.7 z m -2.3,-6.3 -2.1,-5.8 c -0.6,-1.7 -1.4,-4.4 -1.5,-4.4 h 0 c 0,0 -0.8,2.7 -1.5,4.4 l -2.1,5.8 h 7.2 z"
       id="path40"
       style="fill:#c7225b" /></g></svg>